
<svg width="48" height="48" viewBox="0 0 48 48" fill="none" xmlns="http://www.w3.org/2000/svg">
  <path d="M22.6 28C22.6 26.65 22.7208 25.6792 22.9625 25.0875C23.2042 24.4958 23.7167 23.85 24.5 23.15C25.1833 22.55 25.7042 22.0292 26.0625 21.5875C26.4208 21.1458 26.6 20.6417 26.6 20.075C26.6 19.3917 26.3708 18.825 25.9125 18.375C25.4542 17.925 24.8167 17.7 24 17.7C23.15 17.7 22.5042 17.9583 22.0625 18.475C21.6208 18.9917 21.3083 19.5167 21.125 20.05L18.55 18.95C18.9 17.8833 19.5417 16.9583 20.475 16.175C21.4083 15.3917 22.5833 15 24 15C25.75 15 27.0958 15.4875 28.0375 16.4625C28.9792 17.4375 29.45 18.6083 29.45 19.975C29.45 20.8083 29.2708 21.5208 28.9125 22.1125C28.5542 22.7042 27.9917 23.375 27.225 24.125C26.4083 24.9083 25.9125 25.5042 25.7375 25.9125C25.5625 26.3208 25.475 27.0167 25.475 28H22.6ZM24 34C23.45 34 22.9792 33.8042 22.5875 33.4125C22.1958 33.0208 22 32.55 22 32C22 31.45 22.1958 30.9792 22.5875 30.5875C22.9792 30.1958 23.45 30 24 30C24.55 30 25.0208 30.1958 25.4125 30.5875C25.8042 30.9792 26 31.45 26 32C26 32.55 25.8042 33.0208 25.4125 33.4125C25.0208 33.8042 24.55 34 24 34Z" fill="white"/>
</svg>
