<svg width="48" height="48" viewBox="0 0 48 48" fill="none" xmlns="http://www.w3.org/2000/svg">
<path fill-rule="evenodd" clip-rule="evenodd" d="M31.8672 11.9608C31.9617 11.9151 32.0461 11.8965 32.1208 11.8965C32.1939 11.8965 32.3652 11.9397 32.6491 12.1066C32.918 12.2646 33.2342 12.5014 33.5809 12.8044C34.2731 13.4095 35.0446 14.2416 35.744 15.1278C36.4443 16.0151 37.0564 16.9367 37.4404 17.7161C37.633 18.1071 37.7587 18.4434 37.8154 18.7099C37.8753 18.9915 37.841 19.1146 37.8234 19.1475C37.1906 20.329 36.0219 21.4604 34.8604 22.191C34.2813 22.5552 33.7295 22.8034 33.2737 22.914C32.7968 23.0297 32.5347 22.9706 32.419 22.8882C31.9358 22.5445 31.7721 22.198 31.7082 21.8154C31.6734 21.607 31.6673 21.3784 31.6725 21.1111C31.6743 21.0204 31.6777 20.9187 31.6813 20.8116L31.6813 20.8109C31.6874 20.6273 31.6941 20.4276 31.6941 20.2392C31.6941 19.9571 31.4645 19.7284 31.1812 19.7284C30.8979 19.7284 30.6683 19.9571 30.6683 20.2392C30.6683 20.4173 30.6627 20.5776 30.657 20.7436L30.657 20.7437L30.657 20.7439C30.6532 20.8548 30.6493 20.9682 30.6469 21.0912C30.6413 21.3772 30.6457 21.6806 30.6962 21.983C30.8029 22.622 31.1091 23.2119 31.8227 23.7195C32.3054 24.0628 32.9409 24.0462 33.5166 23.9065C34.1134 23.7617 34.769 23.4566 35.4082 23.0547C35.4997 22.9971 35.5914 22.9372 35.6831 22.8751C35.7605 23.4217 35.8006 23.9803 35.8006 24.5482C35.8006 31.0721 30.512 36.3607 23.9881 36.3607C17.4643 36.3607 12.1756 31.0721 12.1756 24.5482C12.1756 23.9751 12.2164 23.4116 12.2953 22.8604C12.3942 22.9277 12.4932 22.9926 12.5919 23.0547C13.2311 23.4566 13.8867 23.7617 14.4836 23.9065C15.0592 24.0462 15.6948 24.0628 16.1774 23.7195C16.8911 23.2119 17.1972 22.622 17.3039 21.983C17.3544 21.6806 17.3588 21.3772 17.3532 21.0912C17.3508 20.9682 17.3469 20.8547 17.3431 20.7437C17.3374 20.5777 17.3319 20.4174 17.3319 20.2392C17.3319 19.9571 17.1022 19.7284 16.8189 19.7284C16.5356 19.7284 16.306 19.9571 16.306 20.2392C16.306 20.4276 16.3127 20.6273 16.3188 20.8109L16.3188 20.811C16.3224 20.9184 16.3258 21.0202 16.3276 21.1111C16.3328 21.3784 16.3267 21.607 16.2919 21.8154C16.228 22.198 16.0643 22.5445 15.5812 22.8882C15.4654 22.9706 15.2034 23.0297 14.7264 22.914C14.2707 22.8034 13.7188 22.5552 13.1397 22.191C11.9782 21.4604 10.8095 20.329 10.1768 19.1475C10.1591 19.1146 10.1248 18.9915 10.1847 18.7099C10.2414 18.4434 10.3671 18.1071 10.5598 17.7161C10.9437 16.9367 11.5558 16.0151 12.2561 15.1278C12.9555 14.2416 13.727 13.4095 14.4192 12.8044C14.7659 12.5014 15.0822 12.2646 15.351 12.1065C15.6349 11.9397 15.8062 11.8965 15.8793 11.8965C16.034 11.8965 16.2309 11.9765 16.4714 12.211C16.7097 12.4432 16.9426 12.7817 17.1583 13.1812C17.5885 13.9781 17.8963 14.9158 18.0326 15.4317C18.1047 15.7045 18.3853 15.8674 18.6592 15.7956C18.9332 15.7238 19.0968 15.4445 19.0247 15.1717C18.9476 14.8798 18.8208 14.4646 18.6494 14.0081C20.2529 13.1944 22.0669 12.7357 23.9881 12.7357C25.9173 12.7357 27.7385 13.1982 29.3469 14.0183C29.1774 14.4708 29.052 14.882 28.9754 15.1717C28.9033 15.4445 29.067 15.7238 29.3409 15.7956C29.6149 15.8674 29.8954 15.7045 29.9675 15.4317C30.0288 15.1996 30.1248 14.8823 30.251 14.5308C30.2703 14.5429 30.2895 14.555 30.3087 14.5671C30.5495 13.7466 31.0891 12.4881 31.8672 11.9608Z" fill="#F357A1"/>
<path fill-rule="evenodd" clip-rule="evenodd" d="M30.4167 29.0019C30.4167 31 27.5439 31 24 31C20.4562 31 17.5834 31 17.5834 29.0019C17.5834 25.7562 20.4562 23.125 24 23.125C27.5439 23.125 30.4167 25.7562 30.4167 29.0019ZM23.1516 27.5276C23.1516 28.5752 22.4619 29.4245 21.6111 29.4245C20.7603 29.4245 20.0706 28.5752 20.0706 27.5276C20.0706 26.48 20.7603 25.6307 21.6111 25.6307C22.4619 25.6307 23.1516 26.48 23.1516 27.5276ZM26.2299 29.4245C27.0807 29.4245 27.7704 28.5752 27.7704 27.5276C27.7704 26.48 27.0807 25.6307 26.2299 25.6307C25.3791 25.6307 24.6894 26.48 24.6894 27.5276C24.6894 28.5752 25.3791 29.4245 26.2299 29.4245Z" fill="white" fill-opacity="0.7"/>
</svg>
